<?xml version='1.0' encoding='UTF-8' standalone='no'?>
<!-- Created with Fritzing (http://www.fritzing.org/) -->
<svg xmlns="http://www.w3.org/2000/svg" y="0in" width="3.33333in" version="1.2" xmlns:svg="http://www.w3.org/2000/svg" baseProfile="tiny"  height="2.22222in" x="0in" viewBox="0 0 240 160">
 <g transform="matrix(-1, 0, 0, 1, 240, 0)">
  <g partID="57472">
   <g id="silkscreen0">
    <rect fill="none" y="0.288" width="239.424" stroke-width="0.576" stroke="black" height="159.424" x="0.288"/>
   </g>
  </g>
  <g partID="57470">
   <g id="board">
    <rect fill="none" y="0.288" width="239.424" fill-opacity="0.5" stroke-width="0.5" stroke="black" id="boardoutline" height="159.424" x="0.288"/>
   </g>
  </g>
  <g partID="57472">
   <g id="silkscreen0">
    <rect fill="none" y="0.288" width="239.424" stroke-width="0.576" stroke="black" height="159.424" x="0.288"/>
   </g>
  </g>
  <g partID="57960">
   <g transform="translate(69.0784,14.4374)">
    <g id="copper0">
     <circle fill="white" r="1.908" stroke-width="1.944" stroke="white" cx="3.6" cy="10.8" id="connector16pad"/>
     <rect y="8.892" fill="white" width="3.814" stroke-width="1.944" stroke="white" height="3.816" x="1.692"/>
     <circle fill="white" r="1.908" stroke-width="1.944" stroke="white" cx="3.6" cy="18" id="connector17pad"/>
     <circle fill="white" r="1.908" stroke-width="1.944" stroke="white" cx="3.6" cy="25.2" id="connector18pad"/>
     <circle fill="white" r="1.908" stroke-width="1.944" stroke="white" cx="3.6" cy="32.4" id="connector19pad"/>
     <circle fill="white" r="1.908" stroke-width="1.944" stroke="white" cx="3.6" cy="39.6" id="connector20pad"/>
     <circle fill="white" r="1.908" stroke-width="1.944" stroke="white" cx="3.6" cy="46.8" id="connector21pad"/>
     <circle fill="white" r="1.908" stroke-width="1.944" stroke="white" cx="3.6" cy="54" id="connector22pad"/>
     <circle fill="white" r="1.908" stroke-width="1.944" stroke="white" cx="3.6" cy="61.2" id="connector23pad"/>
     <circle fill="white" r="1.908" stroke-width="1.944" stroke="white" cx="3.6" cy="68.4" id="connector24pad"/>
     <circle fill="white" r="1.908" stroke-width="1.944" stroke="white" cx="3.6" cy="75.6" id="connector25pad"/>
     <circle fill="white" r="1.908" stroke-width="1.944" stroke="white" cx="3.6" cy="82.8" id="connector26pad"/>
     <circle fill="white" r="1.908" stroke-width="1.944" stroke="white" cx="3.6" cy="90" id="connector27pad"/>
     <circle fill="white" r="1.908" stroke-width="1.944" stroke="white" cx="3.6" cy="97.2" id="connector28pad"/>
     <circle fill="white" r="1.908" stroke-width="1.944" stroke="white" cx="3.6" cy="104.4" id="connector29pad"/>
     <circle fill="white" r="1.908" stroke-width="1.944" stroke="white" cx="3.6" cy="111.6" id="connector30pad"/>
     <circle fill="white" r="1.908" stroke-width="1.944" stroke="white" cx="46.8" cy="10.8" id="connector31pad"/>
     <circle fill="white" r="1.908" stroke-width="1.944" stroke="white" cx="46.8" cy="18" id="connector32pad"/>
     <circle fill="white" r="1.908" stroke-width="1.944" stroke="white" cx="46.8" cy="25.2" id="connector33pad"/>
     <circle fill="white" r="1.908" stroke-width="1.944" stroke="white" cx="46.8" cy="32.4" id="connector34pad"/>
     <circle fill="white" r="1.908" stroke-width="1.944" stroke="white" cx="46.8" cy="39.6" id="connector35pad"/>
     <circle fill="white" r="1.908" stroke-width="1.944" stroke="white" cx="46.8" cy="46.8" id="connector36pad"/>
     <circle fill="white" r="1.908" stroke-width="1.944" stroke="white" cx="46.8" cy="54" id="connector37pad"/>
     <circle fill="white" r="1.908" stroke-width="1.944" stroke="white" cx="46.8" cy="61.2" id="connector38pad"/>
     <circle fill="white" r="1.908" stroke-width="1.944" stroke="white" cx="46.8" cy="68.4" id="connector39pad"/>
     <circle fill="white" r="1.908" stroke-width="1.944" stroke="white" cx="46.8" cy="75.6" id="connector40pad"/>
     <circle fill="white" r="1.908" stroke-width="1.944" stroke="white" cx="46.8" cy="82.8" id="connector41pad"/>
     <circle fill="white" r="1.908" stroke-width="1.944" stroke="white" cx="46.8" cy="90" id="connector42pad"/>
     <circle fill="white" r="1.908" stroke-width="1.944" stroke="white" cx="46.8" cy="97.2" id="connector43pad"/>
     <circle fill="white" r="1.908" stroke-width="1.944" stroke="white" cx="46.8" cy="104.4" id="connector44pad"/>
     <circle fill="white" r="1.908" stroke-width="1.944" stroke="white" cx="46.8" cy="111.6" id="connector45pad"/>
    </g>
   </g>
  </g>
  <g partID="854102630">
   <g transform="translate(32.3584,28.1174)">
    <g id="copper0">
     <rect fill="white" y="2.34" width="3.96" stroke-width="2.16" stroke="white" height="3.96" x="2.34"/>
     <circle fill="white" r="1.98" stroke-width="2.16" stroke="white" cx="4.32" cy="4.32" id="connector0pin"/>
     <circle fill="white" r="1.98" stroke-width="2.16" stroke="white" cx="4.32" cy="11.52" id="connector1pin"/>
     <circle fill="white" r="1.98" stroke-width="2.16" stroke="white" cx="4.32" cy="40.32" id="connector2pin"/>
     <circle fill="white" r="1.98" stroke-width="2.16" stroke="white" cx="25.92" cy="40.32" id="connector3pin"/>
     <circle fill="white" r="1.98" stroke-width="2.16" stroke="white" cx="25.92" cy="11.52" id="connector4pin"/>
     <circle fill="white" r="1.98" stroke-width="2.16" stroke="white" cx="25.92" cy="4.32" id="connector5pin"/>
    </g>
   </g>
  </g>
  <g partID="854120210">
   <g transform="translate(170.045,62.825)">
    <g transform="matrix(0,-1,1,0,0,0)">
     <g id="copper0">
      <g id="copper1">
       <circle fill="white" r="1.7008" stroke-width="1.85384" stroke="white" cx="8.7876" cy="10.6336" id="connector1pad"/>
       <rect fill="white" y="8.9328" width="3.4016" stroke-width="1.85384" stroke="white" height="3.4016" x="7.0868"/>
       <circle fill="white" r="1.7008" stroke-width="1.85384" stroke="white" cx="8.7876" cy="3.5464" id="connector0pad"/>
      </g>
     </g>
    </g>
   </g>
  </g>
  <g partID="854120070">
   <g transform="translate(170.045,106.025)">
    <g transform="matrix(0,-1,1,0,0,0)">
     <g id="copper0">
      <g id="copper1">
       <circle fill="white" r="1.7008" stroke-width="1.85384" stroke="white" cx="8.7876" cy="10.6336" id="connector1pad"/>
       <rect fill="white" y="8.9328" width="3.4016" stroke-width="1.85384" stroke="white" height="3.4016" x="7.0868"/>
       <circle fill="white" r="1.7008" stroke-width="1.85384" stroke="white" cx="8.7876" cy="3.5464" id="connector0pad"/>
      </g>
     </g>
    </g>
   </g>
  </g>
  <g partID="854120040">
   <g transform="translate(170.045,127.625)">
    <g transform="matrix(0,-1,1,0,0,0)">
     <g id="copper0">
      <g id="copper1">
       <circle fill="white" r="1.7008" stroke-width="1.85384" stroke="white" cx="8.7876" cy="10.6336" id="connector1pad"/>
       <rect fill="white" y="8.9328" width="3.4016" stroke-width="1.85384" stroke="white" height="3.4016" x="7.0868"/>
       <circle fill="white" r="1.7008" stroke-width="1.85384" stroke="white" cx="8.7876" cy="3.5464" id="connector0pad"/>
      </g>
     </g>
    </g>
   </g>
  </g>
  <g partID="854120230">
   <g transform="translate(170.045,84.425)">
    <g transform="matrix(0,-1,1,0,0,0)">
     <g id="copper0">
      <g id="copper1">
       <circle fill="white" r="1.7008" stroke-width="1.85384" stroke="white" cx="8.7876" cy="10.6336" id="connector1pad"/>
       <rect fill="white" y="8.9328" width="3.4016" stroke-width="1.85384" stroke="white" height="3.4016" x="7.0868"/>
       <circle fill="white" r="1.7008" stroke-width="1.85384" stroke="white" cx="8.7876" cy="3.5464" id="connector0pad"/>
      </g>
     </g>
    </g>
   </g>
  </g>
  <g partID="854120250">
   <g transform="translate(170.045,41.225)">
    <g transform="matrix(0,-1,1,0,0,0)">
     <g id="copper0">
      <g id="copper1">
       <circle fill="white" r="1.7008" stroke-width="1.85384" stroke="white" cx="8.7876" cy="10.6336" id="connector1pad"/>
       <rect fill="white" y="8.9328" width="3.4016" stroke-width="1.85384" stroke="white" height="3.4016" x="7.0868"/>
       <circle fill="white" r="1.7008" stroke-width="1.85384" stroke="white" cx="8.7876" cy="3.5464" id="connector0pad"/>
      </g>
     </g>
    </g>
   </g>
  </g>
  <g partID="854121750">
   <g transform="translate(176.178,35.5334)">
    <g transform="matrix(-1,0,0,-1,0,0)">
     <g id="copper0">
      <g id="copper1">
       <!-- <rect width="55" x="10" y="15.5" fill="none" height="55" stroke="rgb(255, 191, 0)" stroke-width="20" />  -->
       <circle fill="white" r="1.98" stroke-width="2.16" stroke="white" cx="2.7" cy="3.096" id="connector0pin"/>
       <circle fill="white" r="1.98" stroke-width="2.16" stroke="white" cx="31.5" cy="3.096" id="connector1pin"/>
      </g>
     </g>
    </g>
   </g>
  </g>
  <g partID="854121710">
   <g transform="translate(176.178,78.7334)">
    <g transform="matrix(-1,0,0,-1,0,0)">
     <g id="copper0">
      <g id="copper1">
       <!-- <rect width="55" x="10" y="15.5" fill="none" height="55" stroke="rgb(255, 191, 0)" stroke-width="20" />  -->
       <circle fill="white" r="1.98" stroke-width="2.16" stroke="white" cx="2.7" cy="3.096" id="connector0pin"/>
       <circle fill="white" r="1.98" stroke-width="2.16" stroke="white" cx="31.5" cy="3.096" id="connector1pin"/>
      </g>
     </g>
    </g>
   </g>
  </g>
  <g partID="854121730">
   <g transform="translate(176.178,57.1334)">
    <g transform="matrix(-1,0,0,-1,0,0)">
     <g id="copper0">
      <g id="copper1">
       <!-- <rect width="55" x="10" y="15.5" fill="none" height="55" stroke="rgb(255, 191, 0)" stroke-width="20" />  -->
       <circle fill="white" r="1.98" stroke-width="2.16" stroke="white" cx="2.7" cy="3.096" id="connector0pin"/>
       <circle fill="white" r="1.98" stroke-width="2.16" stroke="white" cx="31.5" cy="3.096" id="connector1pin"/>
      </g>
     </g>
    </g>
   </g>
  </g>
  <g partID="854121690">
   <g transform="translate(176.178,100.333)">
    <g transform="matrix(-1,0,0,-1,0,0)">
     <g id="copper0">
      <g id="copper1">
       <!-- <rect width="55" x="10" y="15.5" fill="none" height="55" stroke="rgb(255, 191, 0)" stroke-width="20" />  -->
       <circle fill="white" r="1.98" stroke-width="2.16" stroke="white" cx="2.7" cy="3.096" id="connector0pin"/>
       <circle fill="white" r="1.98" stroke-width="2.16" stroke="white" cx="31.5" cy="3.096" id="connector1pin"/>
      </g>
     </g>
    </g>
   </g>
  </g>
  <g partID="854121660">
   <g transform="translate(176.178,121.933)">
    <g transform="matrix(-1,0,0,-1,0,0)">
     <g id="copper0">
      <g id="copper1">
       <!-- <rect width="55" x="10" y="15.5" fill="none" height="55" stroke="rgb(255, 191, 0)" stroke-width="20" />  -->
       <circle fill="white" r="1.98" stroke-width="2.16" stroke="white" cx="2.7" cy="3.096" id="connector0pin"/>
       <circle fill="white" r="1.98" stroke-width="2.16" stroke="white" cx="31.5" cy="3.096" id="connector1pin"/>
      </g>
     </g>
    </g>
   </g>
  </g>
  <g partID="854350580">
   <g transform="translate(36.6784,82.8374)">
    <g id="copper0">
     <path d="m9,21.6a1.8,1.8,0,0,1,-3.6,0,1.8,1.8,0,1,1,3.6,0z" fill="white" style="stroke-linecap:round;stroke-linejoin:round;stroke-miterlimit:4;stroke-dasharray:none;stroke-dashoffset:0;display:inline" stroke-width="2.16" stroke="white" id="connector1pad" stroke-opacity="1"/>
     <path d="m16.2,21.6a1.8,1.8,0,0,1,-3.6,0,1.8,1.8,0,1,1,3.6,0z" fill="white" style="stroke-linecap:round;stroke-linejoin:round;stroke-miterlimit:4;stroke-dasharray:none;stroke-dashoffset:0;display:inline" stroke-width="2.16" stroke="white" id="connector2pad" stroke-opacity="1"/>
     <path d="m23.4,21.6a1.8,1.8,0,0,1,-3.6,0,1.8,1.8,0,1,1,3.6,0z" fill="white" style="stroke-linecap:round;stroke-linejoin:round;stroke-miterlimit:4;stroke-dasharray:none;stroke-dashoffset:0;display:inline" stroke-width="2.16" stroke="white" id="connector3pad" stroke-opacity="1"/>
    </g>
   </g>
  </g>
 </g>
</svg>
