<?xml version='1.0' encoding='UTF-8' standalone='no'?>
<!-- Created with Fritzing (http://www.fritzing.org/) -->
<svg xmlns="http://www.w3.org/2000/svg" y="0in" width="3.33333in" version="1.2" xmlns:svg="http://www.w3.org/2000/svg" baseProfile="tiny"  height="2.22222in" x="0in" viewBox="0 0 240 160">
 <g transform="matrix(-1, 0, 0, 1, 240, 0)">
  <g partID="57470">
   <g id="board" >
    <rect fill="none" y="0.288" width="239.424" fill-opacity="0.5" stroke-width="0.5" stroke="black" id="boardoutline"  height="159.424" x="0.288"/>
   </g>
  </g>
  <g partID="57960">
   <g transform="translate(69.0784,14.4374)">
    <g id="copper0" >
     <circle fill="none" r="1.908" stroke-width="1.224" stroke="black" cx="3.6" cy="10.8" id="connector16pad" />
     <rect y="8.892" fill="none" width="3.814" stroke-width="1.224" stroke="black"  height="3.816" x="1.692"/>
     <circle fill="none" r="1.908" stroke-width="1.224" stroke="black" cx="3.6" cy="18" id="connector17pad" />
     <circle fill="none" r="1.908" stroke-width="1.224" stroke="black" cx="3.6" cy="25.2" id="connector18pad" />
     <circle fill="none" r="1.908" stroke-width="1.224" stroke="black" cx="3.6" cy="32.4" id="connector19pad" />
     <circle fill="none" r="1.908" stroke-width="1.224" stroke="black" cx="3.6" cy="39.6" id="connector20pad" />
     <circle fill="none" r="1.908" stroke-width="1.224" stroke="black" cx="3.6" cy="46.8" id="connector21pad" />
     <circle fill="none" r="1.908" stroke-width="1.224" stroke="black" cx="3.6" cy="54" id="connector22pad" />
     <circle fill="none" r="1.908" stroke-width="1.224" stroke="black" cx="3.6" cy="61.2" id="connector23pad" />
     <circle fill="none" r="1.908" stroke-width="1.224" stroke="black" cx="3.6" cy="68.4" id="connector24pad" />
     <circle fill="none" r="1.908" stroke-width="1.224" stroke="black" cx="3.6" cy="75.6" id="connector25pad" />
     <circle fill="none" r="1.908" stroke-width="1.224" stroke="black" cx="3.6" cy="82.8" id="connector26pad" />
     <circle fill="none" r="1.908" stroke-width="1.224" stroke="black" cx="3.6" cy="90" id="connector27pad" />
     <circle fill="none" r="1.908" stroke-width="1.224" stroke="black" cx="3.6" cy="97.2" id="connector28pad" />
     <circle fill="none" r="1.908" stroke-width="1.224" stroke="black" cx="3.6" cy="104.4" id="connector29pad" />
     <circle fill="none" r="1.908" stroke-width="1.224" stroke="black" cx="3.6" cy="111.6" id="connector30pad" />
     <circle fill="none" r="1.908" stroke-width="1.224" stroke="black" cx="46.8" cy="10.8" id="connector31pad" />
     <circle fill="none" r="1.908" stroke-width="1.224" stroke="black" cx="46.8" cy="18" id="connector32pad" />
     <circle fill="none" r="1.908" stroke-width="1.224" stroke="black" cx="46.8" cy="25.2" id="connector33pad" />
     <circle fill="none" r="1.908" stroke-width="1.224" stroke="black" cx="46.8" cy="32.4" id="connector34pad" />
     <circle fill="none" r="1.908" stroke-width="1.224" stroke="black" cx="46.8" cy="39.6" id="connector35pad" />
     <circle fill="none" r="1.908" stroke-width="1.224" stroke="black" cx="46.8" cy="46.8" id="connector36pad" />
     <circle fill="none" r="1.908" stroke-width="1.224" stroke="black" cx="46.8" cy="54" id="connector37pad" />
     <circle fill="none" r="1.908" stroke-width="1.224" stroke="black" cx="46.8" cy="61.2" id="connector38pad" />
     <circle fill="none" r="1.908" stroke-width="1.224" stroke="black" cx="46.8" cy="68.4" id="connector39pad" />
     <circle fill="none" r="1.908" stroke-width="1.224" stroke="black" cx="46.8" cy="75.6" id="connector40pad" />
     <circle fill="none" r="1.908" stroke-width="1.224" stroke="black" cx="46.8" cy="82.8" id="connector41pad" />
     <circle fill="none" r="1.908" stroke-width="1.224" stroke="black" cx="46.8" cy="90" id="connector42pad" />
     <circle fill="none" r="1.908" stroke-width="1.224" stroke="black" cx="46.8" cy="97.2" id="connector43pad" />
     <circle fill="none" r="1.908" stroke-width="1.224" stroke="black" cx="46.8" cy="104.4" id="connector44pad" />
     <circle fill="none" r="1.908" stroke-width="1.224" stroke="black" cx="46.8" cy="111.6" id="connector45pad" />
    </g>
   </g>
  </g>
  <g partID="854102630">
   <g transform="translate(32.3584,28.1174)">
    <g id="copper0" >
     <rect fill="none" y="2.34" width="3.96" stroke-width="1.44" stroke="black"  height="3.96" x="2.34"/>
     <circle fill="none" r="1.98" stroke-width="1.44" stroke="black" cx="4.32" cy="4.32" id="connector0pin" />
     <circle fill="none" r="1.98" stroke-width="1.44" stroke="black" cx="4.32" cy="11.52" id="connector1pin" />
     <circle fill="none" r="1.98" stroke-width="1.44" stroke="black" cx="4.32" cy="40.32" id="connector2pin" />
     <circle fill="none" r="1.98" stroke-width="1.44" stroke="black" cx="25.92" cy="40.32" id="connector3pin" />
     <circle fill="none" r="1.98" stroke-width="1.44" stroke="black" cx="25.92" cy="11.52" id="connector4pin" />
     <circle fill="none" r="1.98" stroke-width="1.44" stroke="black" cx="25.92" cy="4.32" id="connector5pin" />
    </g>
   </g>
  </g>
  <g partID="854120250">
   <g transform="translate(170.045,41.225)">
    <g transform="matrix(0,-1,1,0,0,0)">
     <g id="copper0" >
      <g id="copper1" >
       <circle fill="none" r="1.7008" stroke-width="1.13384" stroke="black" cx="8.7876" cy="10.6336" id="connector1pad" />
       <rect fill="none" y="8.9328" width="3.4016" stroke-width="1.13384" stroke="black"  height="3.4016" x="7.0868"/>
       <circle fill="none" r="1.7008" stroke-width="1.13384" stroke="black" cx="8.7876" cy="3.5464" id="connector0pad" />
      </g>
     </g>
    </g>
   </g>
  </g>
  <g partID="854120230">
   <g transform="translate(170.045,84.425)">
    <g transform="matrix(0,-1,1,0,0,0)">
     <g id="copper0" >
      <g id="copper1" >
       <circle fill="none" r="1.7008" stroke-width="1.13384" stroke="black" cx="8.7876" cy="10.6336" id="connector1pad" />
       <rect fill="none" y="8.9328" width="3.4016" stroke-width="1.13384" stroke="black"  height="3.4016" x="7.0868"/>
       <circle fill="none" r="1.7008" stroke-width="1.13384" stroke="black" cx="8.7876" cy="3.5464" id="connector0pad" />
      </g>
     </g>
    </g>
   </g>
  </g>
  <g partID="854120210">
   <g transform="translate(170.045,62.825)">
    <g transform="matrix(0,-1,1,0,0,0)">
     <g id="copper0" >
      <g id="copper1" >
       <circle fill="none" r="1.7008" stroke-width="1.13384" stroke="black" cx="8.7876" cy="10.6336" id="connector1pad" />
       <rect fill="none" y="8.9328" width="3.4016" stroke-width="1.13384" stroke="black"  height="3.4016" x="7.0868"/>
       <circle fill="none" r="1.7008" stroke-width="1.13384" stroke="black" cx="8.7876" cy="3.5464" id="connector0pad" />
      </g>
     </g>
    </g>
   </g>
  </g>
  <g partID="854120070">
   <g transform="translate(170.045,106.025)">
    <g transform="matrix(0,-1,1,0,0,0)">
     <g id="copper0" >
      <g id="copper1" >
       <circle fill="none" r="1.7008" stroke-width="1.13384" stroke="black" cx="8.7876" cy="10.6336" id="connector1pad" />
       <rect fill="none" y="8.9328" width="3.4016" stroke-width="1.13384" stroke="black"  height="3.4016" x="7.0868"/>
       <circle fill="none" r="1.7008" stroke-width="1.13384" stroke="black" cx="8.7876" cy="3.5464" id="connector0pad" />
      </g>
     </g>
    </g>
   </g>
  </g>
  <g partID="854120040">
   <g transform="translate(170.045,127.625)">
    <g transform="matrix(0,-1,1,0,0,0)">
     <g id="copper0" >
      <g id="copper1" >
       <circle fill="none" r="1.7008" stroke-width="1.13384" stroke="black" cx="8.7876" cy="10.6336" id="connector1pad" />
       <rect fill="none" y="8.9328" width="3.4016" stroke-width="1.13384" stroke="black"  height="3.4016" x="7.0868"/>
       <circle fill="none" r="1.7008" stroke-width="1.13384" stroke="black" cx="8.7876" cy="3.5464" id="connector0pad" />
      </g>
     </g>
    </g>
   </g>
  </g>
  <g partID="854121750">
   <g transform="translate(176.178,35.5334)">
    <g transform="matrix(-1,0,0,-1,0,0)">
     <g id="copper0" >
      <g id="copper1" >
       <!-- <rect width="55" x="10" y="15.5" fill="none" height="55" stroke="rgb(255, 191, 0)" stroke-width="20" />  -->
       <circle fill="none" r="1.98" stroke-width="1.44" stroke="black" cx="2.7" cy="3.096" id="connector0pin" />
       <circle fill="none" r="1.98" stroke-width="1.44" stroke="black" cx="31.5" cy="3.096" id="connector1pin" />
      </g>
     </g>
    </g>
   </g>
  </g>
  <g partID="854121730">
   <g transform="translate(176.178,57.1334)">
    <g transform="matrix(-1,0,0,-1,0,0)">
     <g id="copper0" >
      <g id="copper1" >
       <!-- <rect width="55" x="10" y="15.5" fill="none" height="55" stroke="rgb(255, 191, 0)" stroke-width="20" />  -->
       <circle fill="none" r="1.98" stroke-width="1.44" stroke="black" cx="2.7" cy="3.096" id="connector0pin" />
       <circle fill="none" r="1.98" stroke-width="1.44" stroke="black" cx="31.5" cy="3.096" id="connector1pin" />
      </g>
     </g>
    </g>
   </g>
  </g>
  <g partID="854121690">
   <g transform="translate(176.178,100.333)">
    <g transform="matrix(-1,0,0,-1,0,0)">
     <g id="copper0" >
      <g id="copper1" >
       <!-- <rect width="55" x="10" y="15.5" fill="none" height="55" stroke="rgb(255, 191, 0)" stroke-width="20" />  -->
       <circle fill="none" r="1.98" stroke-width="1.44" stroke="black" cx="2.7" cy="3.096" id="connector0pin" />
       <circle fill="none" r="1.98" stroke-width="1.44" stroke="black" cx="31.5" cy="3.096" id="connector1pin" />
      </g>
     </g>
    </g>
   </g>
  </g>
  <g partID="854121710">
   <g transform="translate(176.178,78.7334)">
    <g transform="matrix(-1,0,0,-1,0,0)">
     <g id="copper0" >
      <g id="copper1" >
       <!-- <rect width="55" x="10" y="15.5" fill="none" height="55" stroke="rgb(255, 191, 0)" stroke-width="20" />  -->
       <circle fill="none" r="1.98" stroke-width="1.44" stroke="black" cx="2.7" cy="3.096" id="connector0pin" />
       <circle fill="none" r="1.98" stroke-width="1.44" stroke="black" cx="31.5" cy="3.096" id="connector1pin" />
      </g>
     </g>
    </g>
   </g>
  </g>
  <g partID="854121660">
   <g transform="translate(176.178,121.933)">
    <g transform="matrix(-1,0,0,-1,0,0)">
     <g id="copper0" >
      <g id="copper1" >
       <!-- <rect width="55" x="10" y="15.5" fill="none" height="55" stroke="rgb(255, 191, 0)" stroke-width="20" />  -->
       <circle fill="none" r="1.98" stroke-width="1.44" stroke="black" cx="2.7" cy="3.096" id="connector0pin" />
       <circle fill="none" r="1.98" stroke-width="1.44" stroke="black" cx="31.5" cy="3.096" id="connector1pin" />
      </g>
     </g>
    </g>
   </g>
  </g>
  <g partID="854350580">
   <g transform="translate(36.6784,82.8374)">
    <g id="copper0" >
     <path d="m9,21.6a1.8,1.8,0,0,1,-3.6,0,1.8,1.8,0,1,1,3.6,0z" fill="none" style="stroke-linecap:round;stroke-linejoin:round;stroke-miterlimit:4;stroke-dasharray:none;stroke-dashoffset:0;display:inline" stroke-width="1.44" stroke="black" id="connector1pad"  stroke-opacity="1"/>
     <path d="m16.2,21.6a1.8,1.8,0,0,1,-3.6,0,1.8,1.8,0,1,1,3.6,0z" fill="none" style="stroke-linecap:round;stroke-linejoin:round;stroke-miterlimit:4;stroke-dasharray:none;stroke-dashoffset:0;display:inline" stroke-width="1.44" stroke="black" id="connector2pad"  stroke-opacity="1"/>
     <path d="m23.4,21.6a1.8,1.8,0,0,1,-3.6,0,1.8,1.8,0,1,1,3.6,0z" fill="none" style="stroke-linecap:round;stroke-linejoin:round;stroke-miterlimit:4;stroke-dasharray:none;stroke-dashoffset:0;display:inline" stroke-width="1.44" stroke="black" id="connector3pad"  stroke-opacity="1"/>
    </g>
   </g>
  </g>
  <g partID="854360950">
   <line y2="52.5553" y1="41.094" x1="59.735" x2="71.1963" stroke-width="1.728" stroke="black" stroke-linecap="round"/>
  </g>
  <g partID="854361110">
   <line y2="69.984" y1="69.4809" x1="70.8605" x2="69.984" stroke-width="1.728" stroke="black" stroke-linecap="round"/>
  </g>
  <g partID="854361130">
   <line y2="102.789" y1="69.984" x1="69.984" x2="51.9828" stroke-width="1.728" stroke="black" stroke-linecap="round"/>
  </g>
  <g partID="854361370">
   <line y2="40.608" y1="40.4684" x1="38.5633" x2="38.88" stroke-width="1.728" stroke="black" stroke-linecap="round"/>
  </g>
  <g partID="854361390">
   <line y2="40.608" y1="40.608" x1="38.88" x2="52.704" stroke-width="1.728" stroke="black" stroke-linecap="round"/>
  </g>
  <g partID="854361410">
   <line y2="25.056" y1="40.608" x1="52.704" x2="52.704" stroke-width="1.728" stroke="black" stroke-linecap="round"/>
  </g>
  <g partID="854361430">
   <line y2="19.872" y1="25.056" x1="52.704" x2="61.344" stroke-width="1.728" stroke="black" stroke-linecap="round"/>
  </g>
  <g partID="854361570">
   <line y2="19.872" y1="19.872" x1="61.344" x2="76.896" stroke-width="1.728" stroke="black" stroke-linecap="round"/>
  </g>
  <g partID="854361590">
   <line y2="44.064" y1="19.872" x1="76.896" x2="76.896" stroke-width="1.728" stroke="black" stroke-linecap="round"/>
  </g>
  <g partID="854361610">
   <line y2="44.064" y1="44.064" x1="76.896" x2="73.44" stroke-width="1.728" stroke="black" stroke-linecap="round"/>
  </g>
  <g partID="854361630">
   <line y2="44.8162" y1="44.064" x1="73.44" x2="73.2334" stroke-width="1.728" stroke="black" stroke-linecap="round"/>
  </g>
  <g partID="854361650">
   <line y2="56.16" y1="55.5121" x1="174.842" x2="175.392" stroke-width="1.728" stroke="black" stroke-linecap="round"/>
  </g>
  <g partID="854361670">
   <line y2="59.616" y1="56.16" x1="175.392" x2="175.392" stroke-width="1.728" stroke="black" stroke-linecap="round"/>
  </g>
  <g partID="854361690">
   <line y2="59.616" y1="59.616" x1="175.392" x2="168.48" stroke-width="1.728" stroke="black" stroke-linecap="round"/>
  </g>
  <g partID="854361710">
   <line y2="28.512" y1="59.616" x1="168.48" x2="168.48" stroke-width="1.728" stroke="black" stroke-linecap="round"/>
  </g>
  <g partID="854361730">
   <line y2="26.784" y1="28.512" x1="168.48" x2="175.392" stroke-width="1.728" stroke="black" stroke-linecap="round"/>
  </g>
  <g partID="854361810">
   <line y2="30.24" y1="26.784" x1="175.392" x2="175.392" stroke-width="1.728" stroke="black" stroke-linecap="round"/>
  </g>
  <g partID="854361830">
   <line y2="30.9416" y1="30.24" x1="175.392" x2="174.817" stroke-width="1.728" stroke="black" stroke-linecap="round"/>
  </g>
  <g partID="854361850">
   <line y2="73.44" y1="74.1416" x1="174.817" x2="175.392" stroke-width="1.728" stroke="black" stroke-linecap="round"/>
  </g>
  <g partID="854361870">
   <line y2="69.984" y1="73.44" x1="175.392" x2="175.392" stroke-width="1.728" stroke="black" stroke-linecap="round"/>
  </g>
  <g partID="854361890">
   <line y2="59.616" y1="69.984" x1="175.392" x2="173.664" stroke-width="1.728" stroke="black" stroke-linecap="round"/>
  </g>
  <g partID="854361930">
   <line y2="56.16" y1="59.616" x1="173.664" x2="175.392" stroke-width="1.728" stroke="black" stroke-linecap="round"/>
  </g>
  <g partID="854361950">
   <line y2="99.36" y1="98.7121" x1="174.842" x2="175.392" stroke-width="1.728" stroke="black" stroke-linecap="round"/>
  </g>
  <g partID="854361970">
   <line y2="102.816" y1="99.36" x1="175.392" x2="175.392" stroke-width="1.728" stroke="black" stroke-linecap="round"/>
  </g>
  <g partID="854361990">
   <line y2="102.816" y1="102.816" x1="175.392" x2="168.48" stroke-width="1.728" stroke="black" stroke-linecap="round"/>
  </g>
  <g partID="854362010">
   <line y2="71.712" y1="102.816" x1="168.48" x2="168.48" stroke-width="1.728" stroke="black" stroke-linecap="round"/>
  </g>
  <g partID="854362030">
   <line y2="69.984" y1="71.712" x1="168.48" x2="173.664" stroke-width="1.728" stroke="black" stroke-linecap="round"/>
  </g>
  <g partID="854362110">
   <line y2="73.44" y1="69.984" x1="173.664" x2="175.392" stroke-width="1.728" stroke="black" stroke-linecap="round"/>
  </g>
  <g partID="854362130">
   <line y2="26.784" y1="32.0895" x1="117.945" x2="149.472" stroke-width="1.728" stroke="black" stroke-linecap="round"/>
  </g>
  <g partID="854362230">
   <line y2="30.24" y1="26.784" x1="149.472" x2="168.48" stroke-width="1.728" stroke="black" stroke-linecap="round"/>
  </g>
  <g partID="854362270">
   <line y2="31.6736" y1="30.24" x1="168.48" x2="171.815" stroke-width="1.728" stroke="black" stroke-linecap="round"/>
  </g>
  <g partID="854362290">
   <line y2="37.152" y1="38.0954" x1="38.0443" x2="38.88" stroke-width="1.728" stroke="black" stroke-linecap="round"/>
  </g>
  <g partID="854362310">
   <line y2="35.424" y1="37.152" x1="38.88" x2="42.336" stroke-width="1.728" stroke="black" stroke-linecap="round"/>
  </g>
  <g partID="854362350">
   <line y2="16.416" y1="35.424" x1="42.336" x2="54.432" stroke-width="1.728" stroke="black" stroke-linecap="round"/>
  </g>
  <g partID="854362490">
   <line y2="16.416" y1="16.416" x1="54.432" x2="80.352" stroke-width="1.728" stroke="black" stroke-linecap="round"/>
  </g>
  <g partID="854362510">
   <line y2="47.52" y1="16.416" x1="80.352" x2="80.352" stroke-width="1.728" stroke="black" stroke-linecap="round"/>
  </g>
  <g partID="854362530">
   <line y2="47.52" y1="47.52" x1="80.352" x2="75.168" stroke-width="1.728" stroke="black" stroke-linecap="round"/>
  </g>
  <g partID="854362550">
   <line y2="47.3916" y1="47.52" x1="75.168" x2="74.6998" stroke-width="1.728" stroke="black" stroke-linecap="round"/>
  </g>
  <g partID="854362570">
   <line y2="113.184" y1="105.677" x1="59.6921" x2="68.256" stroke-width="1.728" stroke="black" stroke-linecap="round"/>
  </g>
  <g partID="854362690">
   <line y2="130.464" y1="113.184" x1="68.256" x2="68.256" stroke-width="1.728" stroke="black" stroke-linecap="round"/>
  </g>
  <g partID="854362710">
   <line y2="130.464" y1="130.464" x1="68.256" x2="76.896" stroke-width="1.728" stroke="black" stroke-linecap="round"/>
  </g>
  <g partID="854362730">
   <line y2="47.52" y1="130.464" x1="76.896" x2="76.896" stroke-width="1.728" stroke="black" stroke-linecap="round"/>
  </g>
  <g partID="854362750">
   <line y2="47.1723" y1="47.52" x1="76.896" x2="74.7475" stroke-width="1.728" stroke="black" stroke-linecap="round"/>
  </g>
  <g partID="854362770">
   <line y2="123.552" y1="105.705" x1="45.2663" x2="64.8" stroke-width="1.728" stroke="black" stroke-linecap="round"/>
  </g>
  <g partID="854362930">
   <line y2="133.92" y1="123.552" x1="64.8" x2="64.8" stroke-width="1.728" stroke="black" stroke-linecap="round"/>
  </g>
  <g partID="854362950">
   <line y2="133.92" y1="133.92" x1="64.8" x2="80.352" stroke-width="1.728" stroke="black" stroke-linecap="round"/>
  </g>
  <g partID="854362970">
   <line y2="68.256" y1="133.92" x1="80.352" x2="80.352" stroke-width="1.728" stroke="black" stroke-linecap="round"/>
  </g>
  <g partID="854362990">
   <line y2="47.9196" y1="68.256" x1="80.352" x2="114.083" stroke-width="1.728" stroke="black" stroke-linecap="round"/>
  </g>
  <g partID="854363090">
   <line y2="56.0974" y1="73.5774" x1="144.678" x2="144.678" stroke-width="1.728" stroke="black" stroke-linecap="round"/>
  </g>
  <g partID="854363210">
   <line y2="77.6974" y1="95.1774" x1="144.678" x2="144.678" stroke-width="1.728" stroke="black" stroke-linecap="round"/>
  </g>
  <g partID="854363330">
   <line y2="99.2974" y1="116.777" x1="144.678" x2="144.678" stroke-width="1.728" stroke="black" stroke-linecap="round"/>
  </g>
  <g partID="854363450">
   <line y2="51.9774" y1="34.4974" x1="144.678" x2="144.678" stroke-width="1.728" stroke="black" stroke-linecap="round"/>
  </g>
  <g partID="854363570">
   <line y2="85.536" y1="69.7996" x1="56.733" x2="38.88" stroke-width="1.728" stroke="black" stroke-linecap="round"/>
  </g>
  <g partID="854363690">
   <line y2="108" y1="85.536" x1="38.88" x2="38.88" stroke-width="1.728" stroke="black" stroke-linecap="round"/>
  </g>
  <g partID="854363710">
   <line y2="137.376" y1="108" x1="38.88" x2="61.344" stroke-width="1.728" stroke="black" stroke-linecap="round"/>
  </g>
  <g partID="854363890">
   <line y2="137.376" y1="137.376" x1="61.344" x2="87.264" stroke-width="1.728" stroke="black" stroke-linecap="round"/>
  </g>
  <g partID="854363910">
   <line y2="130.464" y1="137.376" x1="87.264" x2="120.096" stroke-width="1.728" stroke="black" stroke-linecap="round"/>
  </g>
  <g partID="854364190">
   <line y2="77.5171" y1="130.464" x1="120.096" x2="143.836" stroke-width="1.728" stroke="black" stroke-linecap="round"/>
  </g>
 </g>
</svg>
